:SAMPLES-PER-SECOND 30
:FULLY-SPECIFIED
:DEGREES
225
root  12.43140078 38.12022172 -6.276777598 6.889830589 -3.114938021 -10.03530025
lfemur  -52.69110107 -10.65149975 10.6243
ltibia  -1.491570742e-006 -8.364404493e-007 42.2614975
lfoot  5.521815751e-007 15.812603 -14.20300102
ltoes  -4.250644065 -19.5611806 -102.515957
rfemur  6.797440052 2.1005795 32.76979828
rtibia  -8.727266732e-007 2.533748784e-007 42.86330032
rfoot  -2.316020982e-006 -6.710730553 -7.008450031
rtoes  5.373923086 19.29304026 -105.8922705
lowerback  11.32549953 2.140539885 -4.174439907
upperback  0.5564370155 2.016249895 -4.578110218
thorax  -5.756949902 1.033599973 -2.792479992
rclavicle  0 -9.442270133e-015 7.951389973e-016
rhumerus  -18.2840004 8.368780136 -37.56779861
rradius  -7.782817793e-012 0.001642658608 137.9799957
rwrist  0.002739921212 0.003270594636 -21.17819977
rthumb  -92.93752616 -24.25625642 -97.11982154
rhand  -7.920061211e-032 -33.2840004 9.303460121
rfingers  -90 -7.125020027 -90
lclavicle  0 -9.442270133e-015 7.951389973e-016
lhumerus  -1.407290697 -27.19610023 80.78520203
lradius  1.032089952e-011 0.005718162749 136.8049927
lwrist  1.816137865e-011 1.409039812e-011 1.40530014
lthumb  89.89689403 5.08795885 91.16245106
lhand  -1.496451383e-031 -27.76390076 20.11240005
lfingers  90 7.125020027 -90
lowerneck  -4.536520004 0.414169997 -11.95390034
upperneck  10.4229002 -0.2597369552 17.99559975
head  3.802809954 0.2811550498 7.667150021
226
root  12.30344472 38.23822202 -6.230755678 7.498969555 -0.3179317713 -9.069179535
lfemur  -54.08440018 -10.14319897 8.591500282
ltibia  -1.491570742e-006 -8.364404493e-007 41.06420517
lfoot  5.521815751e-007 18.73340034 -12.91260052
ltoes  -4.250644065 -19.5611806 -102.515957
rfemur  6.025510788 2.77609992 32.81029892
rtibia  -8.727266732e-007 2.533748784e-007 42.27190018
rfoot  -2.316020982e-006 -6.821970463 -6.096980095
rtoes  5.373923086 19.29304026 -105.8922705
lowerback  11.34179974 2.653029919 -4.172989845
upperback  0.7409769893 2.663350105 -5.358399868
thorax  -5.524230003 1.342039943 -3.720180035
rclavicle  0 -9.442270133e-015 7.951389973e-016
rhumerus  -13.24389935 5.363769054 -32.70539856
rradius  -7.782816926e-012 0.001642658608 135.0540009
rwrist  0.002739921212 0.003270594636 -20.66710091
rthumb  -92.93752616 -24.25625642 -97.11982154
rhand  -7.920061211e-032 -33.2840004 9.303460121
rfingers  -90 -7.125020027 -90
lclavicle  0 -9.442270133e-015 7.951389973e-016
lhumerus  0.9167012572 -28.20369911 79.42410278
lradius  1.032090038e-011 0.005718162749 136.5
lwrist  1.816137865e-011 1.409039812e-011 1.886829972
lthumb  89.89689403 5.08795885 91.16245106
lhand  -1.496451383e-031 -27.76390076 20.11240005
lfingers  90 7.125020027 -90
lowerneck  -3.194210052 -0.4579769969 -12.57260036
upperneck  9.103460312 -1.419690013 18.44849968
head  3.373369932 -0.376848042 7.846509933
227
root  12.18451102 38.36933346 -6.175933297 8.237569809 1.920840621 -7.994870186
lfemur  -55.10619736 -9.732530594 6.57230854
ltibia  -1.491570742e-006 -8.364404493e-007 39.79339218
lfoot  5.521815751e-007 20.5096035 -11.36009979
ltoes  -4.250644065 -19.5611806 -102.515957
rfemur  5.140431881 3.819550037 32.5060997
rtibia  -8.727266732e-007 2.533748784e-007 41.85789108
rfoot  -2.316020982e-006 -7.304865837 -6.422150135
rtoes  5.373923086 19.29304026 -105.8922705
lowerback  10.95259953 3.258229971 -4.249969959
upperback  1.168470025 3.486979961 -6.012509823
thorax  -4.793169975 1.745769978 -4.454110146
rclavicle  0 -9.442270133e-015 7.951389973e-016
rhumerus  -7.641499043 2.215038776 -27.99959946
rradius  -7.782816058e-012 0.001642658608 130.6560059
rwrist  0.002739921212 0.003270594636 -18.80139923
rthumb  -92.93752616 -24.25625642 -97.11982154
rhand  -7.920061211e-032 -33.2840004 9.303460121
rfingers  -90 -7.125020027 -90
lclavicle  0 -9.442270133e-015 7.951389973e-016
lhumerus  3.559580564 -28.46310043 77.9815979
lradius  1.032090038e-011 0.005718162749 136.4259949
lwrist  1.816137865e-011 1.409039812e-011 2.98319006
lthumb  89.89689403 5.08795885 91.16245106
lhand  -1.496451383e-031 -27.76390076 20.11240005
lfingers  90 7.125020027 -90
lowerneck  -2.416690111 -1.228270054 -13.08740044
upperneck  8.083239555 -2.386179924 18.27190018
head  3.10758996 -0.9300220609 7.822840214
228
root  12.07006635 38.50510965 -6.1336446 9.089409828 3.728800535 -6.976240158
lfemur  -55.86738968 -9.515102386 4.87325716
ltibia  -1.491570742e-006 -8.364404493e-007 38.49988174
lfoot  5.521815751e-007 20.9669075 -10.3100996
ltoes  -4.250644065 -19.5611806 -102.515957
rfemur  4.14661932 4.997671604 32.04179764
rtibia  -8.727266732e-007 2.533748784e-007 41.5055809
rfoot  -2.316020982e-006 -8.07668972 -8.225289345
rtoes  5.373923086 19.29304026 -105.8922705
lowerback  10.57989979 3.853869915 -4.177370071
upperback  1.558159947 4.325079918 -6.595950127
thorax  -4.087440014 2.161570072 -5.186279774
rclavicle  0 -9.442270133e-015 7.951389973e-016
rhumerus  -1.837299943 -0.5550159216 -23.50870132
rradius  -7.782816926e-012 0.001642658608 125.0319977
rwrist  0.002739921212 0.003270594636 -15.94110012
rthumb  -92.93752616 -24.25625642 -97.11982154
rhand  -7.920061211e-032 -33.2840004 9.303460121
rfingers  -90 -7.125020027 -90
lclavicle  0 -9.442270133e-015 7.951389973e-016
lhumerus  5.964659691 -28.11300087 76.59480286
lradius  1.032089952e-011 0.005718162749 136.3869934
lwrist  1.816137865e-011 1.409039812e-011 4.286139965
lthumb  89.89689403 5.08795885 91.16245106
lhand  -1.496451383e-031 -27.76390076 20.11240005
lfingers  90 7.125020027 -90
lowerneck  -1.756860018 -1.794270039 -13.58829975
upperneck  7.224369526 -3.074830055 17.86149979
head  2.863689899 -1.340919971 7.737360001
